<svg xmlns="http://www.w3.org/2000/svg" width="1080" height="560" viewBox="0 0 1080 560">
 <defs><marker id="arrow" markerWidth="10" markerHeight="10" refX="8" refY="3" orient="auto"><path d="M0,0 L0,6 L9,3 z" fill="#37474f"/></marker></defs>
 <rect width="100%" height="100%" fill="#ffffff"/>
 <text x="540" y="28" text-anchor="middle" font-family="Arial" font-size="24" font-weight="700" fill="#17202a">Predictive Context Learning Shapes Embeddings</text>
 <rect x="40" y="205" rx="16" ry="16" width="190" height="100" fill="#e3f2fd" stroke="#263238" stroke-width="2"/><text x="135" y="231" text-anchor="middle" font-family="Arial" font-size="15" font-weight="700" fill="#263238">INPUT</text><text x="135" y="257" text-anchor="middle" font-family="Arial" font-size="14" fill="#263238">Token contexts</text><rect x="285" y="205" rx="16" ry="16" width="215" height="100" fill="#e8f5e9" stroke="#263238" stroke-width="2"/><text x="392.5" y="231" text-anchor="middle" font-family="Arial" font-size="15" font-weight="700" fill="#263238">MECHANISM</text><text x="392.5" y="257" text-anchor="middle" font-family="Arial" font-size="14" fill="#263238">Predict context/target</text><text x="392.5" y="277" text-anchor="middle" font-family="Arial" font-size="14" fill="#263238">pairs</text><rect x="555" y="205" rx="16" ry="16" width="215" height="100" fill="#fff8e1" stroke="#263238" stroke-width="2"/><text x="662.5" y="231" text-anchor="middle" font-family="Arial" font-size="15" font-weight="700" fill="#263238">STATE / REPRESENTATION</text><text x="662.5" y="257" text-anchor="middle" font-family="Arial" font-size="14" fill="#263238">Learned dense vectors</text><rect x="825" y="205" rx="16" ry="16" width="215" height="100" fill="#f3e5f5" stroke="#263238" stroke-width="2"/><text x="932.5" y="231" text-anchor="middle" font-family="Arial" font-size="15" font-weight="700" fill="#263238">OUTPUT</text><text x="932.5" y="257" text-anchor="middle" font-family="Arial" font-size="14" fill="#263238">Similarity geometry</text><rect x="315" y="40" rx="16" ry="16" width="440" height="95" fill="#e0f7fa" stroke="#263238" stroke-width="2"/><text x="535" y="66" text-anchor="middle" font-family="Arial" font-size="15" font-weight="700" fill="#263238">CONTROL KNOB</text><text x="535" y="92" text-anchor="middle" font-family="Arial" font-size="14" fill="#263238">window / negative samples / dimension</text><rect x="315" y="390" rx="16" ry="16" width="440" height="105" fill="#ffebee" stroke="#263238" stroke-width="2"/><text x="535" y="416" text-anchor="middle" font-family="Arial" font-size="15" font-weight="700" fill="#263238">FAILURE LENS</text><text x="535" y="442" text-anchor="middle" font-family="Arial" font-size="14" fill="#263238">Static vector conflates word senses</text>
 <line x1="230" y1="255" x2="285" y2="255" stroke="#37474f" stroke-width="3" marker-end="url(#arrow)"/><text x="257.5" y="247" text-anchor="middle" font-family="Arial" font-size="13" fill="#455a64">changes</text>
 <line x1="500" y1="255" x2="555" y2="255" stroke="#37474f" stroke-width="3" marker-end="url(#arrow)"/><text x="527.5" y="247" text-anchor="middle" font-family="Arial" font-size="13" fill="#455a64">creates</text>
 <line x1="770" y1="255" x2="825" y2="255" stroke="#37474f" stroke-width="3" marker-end="url(#arrow)"/><text x="797.5" y="247" text-anchor="middle" font-family="Arial" font-size="13" fill="#455a64">drives</text>
 <line x1="535" y1="135" x2="430" y2="205" stroke="#37474f" stroke-width="3" marker-end="url(#arrow)"/><text x="482.5" y="162" text-anchor="middle" font-family="Arial" font-size="13" fill="#455a64">controls</text>
 <line x1="535" y1="305" x2="535" y2="390" stroke="#37474f" stroke-width="3" marker-end="url(#arrow)"/><text x="535" y="339.5" text-anchor="middle" font-family="Arial" font-size="13" fill="#455a64">can fail as</text>
 <text x="540" y="535" text-anchor="middle" font-family="Arial" font-size="13" fill="#607d8b">Engineering habit: predict the downstream effect before changing the control knob.</text>
 </svg>