<svg xmlns="http://www.w3.org/2000/svg" width="1000" height="230" viewBox="0 0 1000 230"><style>.b{fill:#f7f7f5;stroke:#536777;stroke-width:2}.t{font:17px Arial;fill:#243b53}.a{stroke:#536777;stroke-width:2.5;marker-end:url(#m)}</style><defs><marker id="m" markerWidth="10" markerHeight="10" refX="9" refY="3" orient="auto"><path d="M0,0 L0,6 L9,3 z" fill="#536777"/></marker></defs><text class="t" x="500" y="28" text-anchor="middle">Model mechanics are not the same as business policy</text><rect class="b" x="35" y="80" width="150" height="70" rx="10"/><text class="t" x="110" y="120" text-anchor="middle">model score</text><rect class="b" x="230" y="80" width="150" height="70" rx="10"/><text class="t" x="305" y="120" text-anchor="middle">threshold</text><rect class="b" x="425" y="80" width="150" height="70" rx="10"/><text class="t" x="500" y="120" text-anchor="middle">action</text><rect class="b" x="620" y="80" width="150" height="70" rx="10"/><text class="t" x="695" y="120" text-anchor="middle">outcome</text><rect class="b" x="815" y="80" width="150" height="70" rx="10"/><text class="t" x="890" y="120" text-anchor="middle">KPI/value</text><line class="a" x1="185" y1="115" x2="230" y2="115"/><line class="a" x1="380" y1="115" x2="425" y2="115"/><line class="a" x1="575" y1="115" x2="620" y2="115"/><line class="a" x1="770" y1="115" x2="815" y2="115"/></svg>