<svg xmlns="http://www.w3.org/2000/svg" width="1200" height="420"><rect width="100%" height="100%" fill="white"/><text x="600" y="42" text-anchor="middle" font-family="Arial" font-size="25" font-weight="700">Representation Control Knobs — What Changes What?</text><defs><marker id="a" markerWidth="10" markerHeight="10" refX="8" refY="3" orient="auto"><path d="M0,0 L0,6 L9,3 z" fill="#455a64"/></marker></defs><rect x="35" y="110" rx="16" width="206" height="170" fill="#e3f2fd" stroke="#263238" stroke-width="2"/><text x="138" y="140" text-anchor="middle" font-family="Arial" font-size="17" font-weight="700">RAW TEXT</text><text x="138" y="172" text-anchor="middle" font-family="Arial" font-size="14">typos, IDs, emails,</text><text x="138" y="195" text-anchor="middle" font-family="Arial" font-size="14">amounts, multi-intent</text><text x="138" y="218" text-anchor="middle" font-family="Arial" font-size="14">language</text><line x1="241" y1="195" x2="261" y2="195" stroke="#455a64" stroke-width="3" marker-end="url(#a)"/><rect x="266" y="110" rx="16" width="206" height="170" fill="#e8f5e9" stroke="#263238" stroke-width="2"/><text x="369" y="140" text-anchor="middle" font-family="Arial" font-size="17" font-weight="700">NORMALIZE</text><text x="369" y="172" text-anchor="middle" font-family="Arial" font-size="14">merge nuisance variation;</text><text x="369" y="195" text-anchor="middle" font-family="Arial" font-size="14">preserve semantic</text><text x="369" y="218" text-anchor="middle" font-family="Arial" font-size="14">placeholders</text><line x1="472" y1="195" x2="492" y2="195" stroke="#455a64" stroke-width="3" marker-end="url(#a)"/><rect x="497" y="110" rx="16" width="206" height="170" fill="#fff8e1" stroke="#263238" stroke-width="2"/><text x="600" y="140" text-anchor="middle" font-family="Arial" font-size="17" font-weight="700">WORD TF-IDF</text><text x="600" y="172" text-anchor="middle" font-family="Arial" font-size="14">exact lexical evidence;</text><text x="600" y="195" text-anchor="middle" font-family="Arial" font-size="14">interpretable sparse</text><text x="600" y="218" text-anchor="middle" font-family="Arial" font-size="14">weights</text><line x1="703" y1="195" x2="723" y2="195" stroke="#455a64" stroke-width="3" marker-end="url(#a)"/><rect x="728" y="110" rx="16" width="206" height="170" fill="#f3e5f5" stroke="#263238" stroke-width="2"/><text x="831" y="140" text-anchor="middle" font-family="Arial" font-size="17" font-weight="700">+ CHAR N-GRAMS</text><text x="831" y="172" text-anchor="middle" font-family="Arial" font-size="14">partial spelling</text><text x="831" y="195" text-anchor="middle" font-family="Arial" font-size="14">evidence; typo</text><text x="831" y="218" text-anchor="middle" font-family="Arial" font-size="14">robustness; more features</text><line x1="934" y1="195" x2="954" y2="195" stroke="#455a64" stroke-width="3" marker-end="url(#a)"/><rect x="959" y="110" rx="16" width="206" height="170" fill="#ffebee" stroke="#263238" stroke-width="2"/><text x="1062" y="140" text-anchor="middle" font-family="Arial" font-size="17" font-weight="700">LOGISTIC REGRESSION</text><text x="1062" y="172" text-anchor="middle" font-family="Arial" font-size="14">weighted boundary; C</text><text x="1062" y="195" text-anchor="middle" font-family="Arial" font-size="14">controls regularization</text><text x="1062" y="218" text-anchor="middle" font-family="Arial" font-size="14">strength</text><text x="600" y="365" text-anchor="middle" font-family="Arial" font-size="15" fill="#546e7a">Change the representation first only when the current features cannot encode the distinction you need.</text></svg>